<svg width="30" height="34" viewBox="0 0 30 34" fill="none" xmlns="http://www.w3.org/2000/svg">
<path fill-rule="evenodd" clip-rule="evenodd" d="M8.84622 0C9.48347 0 10.0001 0.516595 10.0001 1.15385V5.76923C10.0001 6.40648 9.48347 6.92308 8.84622 6.92308C8.20896 6.92308 7.69237 6.40648 7.69237 5.76923V1.15385C7.69237 0.516595 8.20896 0 8.84622 0Z" fill="#2C78AE"/>
<path fill-rule="evenodd" clip-rule="evenodd" d="M21.1539 0C21.7911 0 22.3077 0.516595 22.3077 1.15385V5.76923C22.3077 6.40648 21.7911 6.92308 21.1539 6.92308C20.5166 6.92308 20 6.40648 20 5.76923V1.15385C20 0.516595 20.5166 0 21.1539 0Z" fill="#2C78AE"/>
<path fill-rule="evenodd" clip-rule="evenodd" d="M0.769185 12.0614C0.769185 11.4241 1.28578 10.9075 1.92303 10.9075H28.0769C28.7141 10.9075 29.2307 11.4241 29.2307 12.0614C29.2307 12.6986 28.7141 13.2152 28.0769 13.2152H1.92303C1.28578 13.2152 0.769185 12.6986 0.769185 12.0614Z" fill="#2C78AE"/>
<path fill-rule="evenodd" clip-rule="evenodd" d="M3.8263 6.36209C2.84056 7.42366 2.30769 9.02307 2.30769 11.1539V24.2308C2.30769 26.3616 2.84056 27.961 3.8263 29.0226C4.79766 30.0687 6.37377 30.7693 8.84616 30.7693H21.1538C23.6262 30.7693 25.2023 30.0687 26.1737 29.0226C27.1594 27.961 27.6923 26.3616 27.6923 24.2308V11.1539C27.6923 9.02307 27.1594 7.42366 26.1737 6.36209C25.2023 5.31601 23.6262 4.61542 21.1538 4.61542H8.84616C6.37377 4.61542 4.79766 5.31601 3.8263 6.36209ZM2.13524 4.79182C3.66388 3.1456 5.93392 2.30773 8.84616 2.30773H21.1538C24.0661 2.30773 26.3361 3.1456 27.8648 4.79182C29.379 6.42257 30 8.66931 30 11.1539V24.2308C30 26.7154 29.379 28.9621 27.8648 30.5929C26.3361 32.2391 24.0661 33.077 21.1538 33.077H8.84616C5.93392 33.077 3.66388 32.2391 2.13524 30.5929C0.620975 28.9621 0 26.7154 0 24.2308V11.1539C0 8.66931 0.620975 6.42257 2.13524 4.79182Z" fill="#2C78AE"/>
<path fill-rule="evenodd" clip-rule="evenodd" d="M19.1459 19.1539C19.1459 18.3043 19.8347 17.6155 20.6844 17.6155H20.6983C21.5479 17.6155 22.2367 18.3043 22.2367 19.1539C22.2367 20.0036 21.5479 20.6924 20.6983 20.6924H20.6844C19.8347 20.6924 19.1459 20.0036 19.1459 19.1539Z" fill="#2C78AE"/>
<path fill-rule="evenodd" clip-rule="evenodd" d="M19.1459 23.7694C19.1459 22.9197 19.8347 22.2309 20.6844 22.2309H20.6983C21.5479 22.2309 22.2367 22.9197 22.2367 23.7694C22.2367 24.6191 21.5479 25.3079 20.6983 25.3079H20.6844C19.8347 25.3079 19.1459 24.6191 19.1459 23.7694Z" fill="#2C78AE"/>
<path fill-rule="evenodd" clip-rule="evenodd" d="M13.4549 19.1539C13.4549 18.3043 14.1437 17.6155 14.9933 17.6155H15.0072C15.8569 17.6155 16.5457 18.3043 16.5457 19.1539C16.5457 20.0036 15.8569 20.6924 15.0072 20.6924H14.9933C14.1437 20.6924 13.4549 20.0036 13.4549 19.1539Z" fill="#2C78AE"/>
<path fill-rule="evenodd" clip-rule="evenodd" d="M13.4549 23.7694C13.4549 22.9197 14.1437 22.2309 14.9933 22.2309H15.0072C15.8569 22.2309 16.5457 22.9197 16.5457 23.7694C16.5457 24.6191 15.8569 25.3079 15.0072 25.3079H14.9933C14.1437 25.3079 13.4549 24.6191 13.4549 23.7694Z" fill="#2C78AE"/>
<path fill-rule="evenodd" clip-rule="evenodd" d="M7.76071 19.1541C7.76071 18.3044 8.44951 17.6156 9.29918 17.6156H9.31299C10.1627 17.6156 10.8515 18.3044 10.8515 19.1541C10.8515 20.0037 10.1627 20.6925 9.31299 20.6925H9.29918C8.44951 20.6925 7.76071 20.0037 7.76071 19.1541Z" fill="#2C78AE"/>
<path fill-rule="evenodd" clip-rule="evenodd" d="M7.76069 23.7694C7.76069 22.9197 8.44948 22.2309 9.29915 22.2309H9.31297C10.1626 22.2309 10.8514 22.9197 10.8514 23.7694C10.8514 24.6191 10.1626 25.3079 9.31297 25.3079H9.29915C8.44948 25.3079 7.76069 24.6191 7.76069 23.7694Z" fill="#2C78AE"/>
</svg>
