<svg width="40" height="41" viewBox="0 0 40 41" fill="none" xmlns="http://www.w3.org/2000/svg">
<path d="M9.99987 31.7438C9.99987 33.5771 11.4999 35.0771 13.3332 35.0771H26.6665C28.4999 35.0771 29.9999 33.5771 29.9999 31.7438V15.0771C29.9999 13.2438 28.4999 11.7438 26.6665 11.7438H13.3332C11.4999 11.7438 9.99987 13.2438 9.99987 15.0771V31.7438ZM29.9999 6.74381H25.8332L24.6499 5.56048C24.3499 5.26048 23.9165 5.07715 23.4832 5.07715H16.5165C16.0832 5.07715 15.6499 5.26048 15.3499 5.56048L14.1665 6.74381H9.99987C9.0832 6.74381 8.3332 7.49381 8.3332 8.41048C8.3332 9.32715 9.0832 10.0771 9.99987 10.0771H29.9999C30.9165 10.0771 31.6665 9.32715 31.6665 8.41048C31.6665 7.49381 30.9165 6.74381 29.9999 6.74381Z" fill="#ABABAB"/>
</svg>
