<svg width="65" height="66" viewBox="0 0 65 66" fill="none" xmlns="http://www.w3.org/2000/svg">
<path fill-rule="evenodd" clip-rule="evenodd" d="M41.3598 8.70216L51.794 19.1491H43.2253C42.1992 19.1491 41.3598 18.3096 41.3598 17.2836L41.3598 8.70216Z" fill="#80CBC4"/>
<path fill-rule="evenodd" clip-rule="evenodd" d="M14.4365 8.70215H41.3631V17.2317C41.3631 18.2863 42.2259 19.1491 43.2805 19.1491H51.7973V45.0108C51.7973 45.709 51.226 46.2803 50.5277 46.2803H14.4366C13.7383 46.2803 13.1671 45.709 13.1671 45.0108V9.97171C13.1671 9.27346 13.7383 8.70215 14.4365 8.70215Z" fill="#B2DFDB"/>
<path d="M21.3281 24.5476H44.6875V26.5789H21.3281V24.5476Z" fill="#00897B"/>
<path d="M21.3281 31.657H44.6875V33.6883H21.3281V31.657Z" fill="#00897B"/>
<path fill-rule="evenodd" clip-rule="evenodd" d="M10.7084 39.2391H54.2917C55.0018 39.2391 55.648 39.5321 56.117 40.0042C56.5847 40.4751 56.8751 41.1226 56.8751 41.8329V54.349C56.8751 55.0593 56.5847 55.7068 56.117 56.1777C55.648 56.6497 55.0018 56.9429 54.2917 56.9429H10.7084C9.99834 56.9429 9.35207 56.6497 8.88308 56.1777C8.41537 55.7069 8.125 55.0594 8.125 54.349V41.8329C8.125 41.1226 8.41537 40.4751 8.88308 40.0042C9.352 39.5321 9.99826 39.2391 10.7084 39.2391Z" fill="#00897B"/>
<path d="M11.7845 53.7724L15.6672 47.8453L12.1495 42.4128H14.8288L17.1086 46.0627L19.3383 42.4128H21.9963L18.4628 47.93L22.3454 53.7724H19.5789L17.061 49.8448L14.5352 53.7724H11.7845ZM23.5859 53.7724V42.5054H25.879V51.8576H31.5813V53.7724H23.5859ZM32.6366 50.0775L34.8688 49.858C35.0011 50.6092 35.2735 51.1593 35.6861 51.5111C36.096 51.8602 36.6488 52.0374 37.3471 52.0374C38.085 52.0374 38.643 51.8813 39.0159 51.5666C39.3915 51.2545 39.5793 50.8895 39.5793 50.4716C39.5793 50.2019 39.5 49.9744 39.3413 49.7866C39.1852 49.5962 38.9102 49.4322 38.5161 49.2947C38.2489 49.1995 37.6353 49.0355 36.6806 48.7974C35.4507 48.4933 34.5885 48.1177 34.0939 47.6734C33.3956 47.0492 33.0465 46.2875 33.0465 45.3882C33.0465 44.809 33.2105 44.2694 33.5385 43.7643C33.8664 43.2617 34.3398 42.8783 34.9561 42.6138C35.575 42.3519 36.3182 42.2197 37.191 42.2197C38.6192 42.2197 39.6904 42.5318 40.4124 43.1559C41.1318 43.7828 41.51 44.6159 41.5471 45.6606L39.254 45.7611C39.1561 45.1766 38.9445 44.7561 38.6219 44.5022C38.2992 44.2456 37.8152 44.1187 37.1698 44.1187C36.5033 44.1187 35.9797 44.2536 35.6041 44.5287C35.3608 44.7032 35.2391 44.9386 35.2391 45.2322C35.2391 45.5019 35.3528 45.732 35.5803 45.9225C35.8686 46.1658 36.5721 46.4197 37.6882 46.6816C38.8044 46.946 39.6295 47.2184 40.1638 47.4988C40.6981 47.7818 41.1159 48.1653 41.4201 48.6546C41.7216 49.1439 41.8724 49.747 41.8724 50.4637C41.8724 51.1143 41.6926 51.7253 41.3302 52.2913C40.9678 52.8599 40.4574 53.2831 39.7962 53.5582C39.1349 53.8359 38.3098 53.9734 37.3232 53.9734C35.8871 53.9734 34.7842 53.6428 34.0145 52.9789C33.2449 52.3151 32.7847 51.3471 32.6366 50.0775ZM42.6473 53.7724L46.53 47.8453L43.0124 42.4128H45.6916L47.9714 46.0627L50.2011 42.4128H52.8591L49.3256 47.93L53.2083 53.7724H50.4418L47.9238 49.8448L45.398 53.7724H42.6473Z" fill="white"/>
</svg>
