<svg width="116" height="123" viewBox="0 0 116 123" fill="none" xmlns="http://www.w3.org/2000/svg">
<path opacity="0.4" d="M109.641 50.335H92.0831C77.6843 50.335 65.9587 38.6094 65.9587 24.2106V6.65259C65.9587 3.3111 63.2248 0.577148 59.8833 0.577148H34.1234C15.411 0.577148 0.283203 12.728 0.283203 34.4174V88.2458C0.283203 109.935 15.411 122.086 34.1234 122.086H81.8764C100.589 122.086 115.717 109.935 115.717 88.2458V56.4104C115.717 53.069 112.983 50.335 109.641 50.335Z" fill="#2C78AE"/>
<path d="M81.0848 1.85278C78.5938 -0.638147 74.2803 1.06298 74.2803 4.52598V25.7293C74.2803 34.5994 81.8138 41.9507 90.9877 41.9507C96.7594 42.0114 104.779 42.0114 111.644 42.0114C115.107 42.0114 116.93 37.9409 114.5 35.5107C105.751 26.7013 90.0764 10.8444 81.0848 1.85278Z" fill="#2C78AE"/>
<path d="M55.1416 64.1872L42.9904 52.0363C42.9296 51.9756 42.8689 51.9755 42.8689 51.9148C42.5043 51.5503 42.0183 51.2465 41.5323 51.0035C41.4715 51.0035 41.4715 51.0035 41.4108 51.0035C40.9247 50.8212 40.4387 50.7605 39.9527 50.6997C39.7704 50.6997 39.6489 50.6997 39.4666 50.6997C39.1021 50.6997 38.6768 50.8212 38.3123 50.9427C38.13 51.0035 38.0085 51.0642 37.887 51.125C37.401 51.368 36.9149 51.611 36.5504 52.0363L24.3995 64.1872C22.6377 65.9491 22.6377 68.8653 24.3995 70.6271C26.1614 72.389 29.0776 72.389 30.8395 70.6271L35.2138 66.2528V91.7089C35.2138 94.1999 37.2795 96.2655 39.7704 96.2655C42.2613 96.2655 44.327 94.1999 44.327 91.7089V66.2528L48.7016 70.6271C49.6129 71.5385 50.7673 71.9637 51.9216 71.9637C53.0759 71.9637 54.2303 71.5385 55.1416 70.6271C56.9034 68.8653 56.9034 65.9491 55.1416 64.1872Z" fill="#2C78AE"/>
</svg>
